<svg height="60" viewBox="0 0 306 60" width="306" xmlns="http://www.w3.org/2000/svg"><g fill="#dc4405" fill-rule="evenodd"><path d="m238.817822 7.44950495c2.30608-.70859397 4.720456-.99831903 7.128713-.85544554 2.209901.15445544 2.376237 3.86732669-.243565 4.02772279-2.619802.160396-5.4.5584158-7.128713 2.9168317-.548918.7588161-.905646 1.6394229-1.039604 2.5663366l-1.188118 8.5425743c-.39208 2.8574257.528713 4.3663366 3.237623 5.2336633.350495.1128713 2.423763.409901 3.100991.5049505 2.073267.2970297 1.687128 3.7485149-1.110892 3.8910891-1.543704.1102899-3.09519.0204355-4.615841-.2673267-1.537384-.2764513-3.008719-.8407988-4.336634-1.6633663-2.619802-1.8653466-3.261386-4.419802-2.79802-7.4970297l3.106931-22.21782183c0-.07128713.077228-.59405941.142574-.93267327.362377-1.72871287 5.316832-2.44158416 6.362377-.67128713.190411.27987566.25703.62586576.184158.95643565-.30297 1.93663366-.475248 3.52871287-.79604 5.46534653zm-41.19802 26.84554455h-10.586139c-2.934653 0-6.689109-.0594059-9.338613-1.419802-3.065347-1.5742574-3.623763-4.1584158-3.184159-7.3544554 1.265347-9.0653466 11.744555-10.2653466 19.128713-9.7425743.338614-5.99999998-7.318812-5.0613861-11.055446-5.1267327-1.568316-.0297029-2.275247-1.8534653-.20198-2.97029698 3.172277-1.66336634 9.112872-1.43168317 12.403961-.15445545 3.950495 1.53267327 5.940594 4.28316833 5.346534 8.62574253zm-4.514852-14.5128713c-4.158415-.3445544-11.097029-.0356435-11.881188 5.2811881-.166336 1.1227723-.148514 2.3762377.712872 3.2435644 2.376237 2.3227723 6.766336 1.9306931 9.724752 1.9306931zm32.239604-13.27128711c1.657426.18415841 1.687129 1.65742574.99208 2.52475247-.147479.18400927-.312623.35313326-.49307.5049505-1.235643.80198024-2.512871.98613864-4.924752.98613864h-7.823762c-1.99604 0-3.279208 1.2356435-3.368317 2.7029703-.105071.6921903.23773 1.3754119.855445 1.7049505.885149.6653465 4.639604 1.2475247 5.940594 1.5267326 3.320792.7247525 8.524753.8435644 9.914852 4.6990099.843564 2.3346535.249505 5.5128713-.885149 7.6336634-1.843481 3.4866853-5.484026 5.6476137-9.427723 5.5960396h-13.295049c-2.09703 0-2.215842-2.1683168-1.318812-3.0831683 1.318812-1.3366337 3.368317-1.1881188 4.889109-1.1881188h8.667327c2.275247 0 4.889109-1.0039604 5.263366-3.5346535.493069-3.3267327-3.641584-3.7306931-5.881188-4.1584158-1.984158-.3742575-6.439604-.9386139-8.055446-1.669307-.905571-.4080695-1.697067-1.0322912-2.30495-1.8178217-.807529-1.3682238-1.096375-2.9811206-.813861-4.5445545 1.00396-6.42772277 6.617821-8.01980197 12.30297-8.01980197zm29.643565 18.46930691c-.124753 3.1247525 2.477228 4.8534654 5.346534 5.180198 2.093825.1435595 4.193736.1772691 6.29109.1009901.213683.0164043.418951.0903009.594059.2138614 1.009901.7663367 0 2.1029703-1.015842 2.7089109-1.514851.8910891-4.217821 1.229703-5.940594 1.229703-5.287128 0-11.144554-1.6752475-11.762376-7.8475248-.100105-1.0237959-.066155-2.0562789.10099-3.0712871l.79604-5.3465346c1.09901-7.3782179 6.570297-11.79207926 13.924752-11.79207926 2.477228 0 5.566337.62970297 7.633664 2.04950495 2.495049 1.71683171 3.344554 4.20000001 2.910891 7.12871291-1.188119 7.930693-12.522773 9.3683168-18.867327 9.4336633zm.60594-4.2653465c2.621924-.0264406 5.220661-.494374 7.687129-1.3841584 1.924753-.7544555 3.825743-2.0613862 4.158416-4.259406.487129-3.2970297-1.782178-4.6158416-4.710891-4.6158416-2.755391-.1115621-5.24556 1.632043-6.083168 4.259406-.623763 1.9188119-.748515 4.0217822-1.045545 6zm-102.582178-11.3168317c4.752475-3.68316831 13.312871-4.25940594 17.726733.24950495 1.17197 1.19270705 1.90135 2.74997535 2.067327 4.41386135.10102.7411279.10102 1.4925355 0 2.2336634l-2.287129 15.4039604c-.080903.3389353-.217405.6621238-.403961.9564356-1.639603 2.6435644-6.594059 2.079208-6.142574-.9564356l2.269307-15.2495049c.314852-2.1564357-.213861-4.3663367-2.376237-5.3465347-.729598-.3198647-1.520415-.4760003-2.316832-.4574257-3.564357 0-5.744555 2.4356435-6.243565 5.7861386l-2.376237 15.8554455c-.427723 2.8574258-6.938614 2.6376238-6.534654 0l2.376238-15.8554455c.326733-2.1504951-.213861-4.3722773-2.346535-5.3465347-.731538-.3203477-1.524394-.4764855-2.322772-.4574257-3.522772 0-5.750495 2.4415841-6.237624 5.7861386l-2.30495 15.7306931c-.487129 3.3089108-6.938614 2.6910891-6.534654 0l2.376238-16.2178218c1.318812-9.01188121 15.308911-12.56435646 21.617822-6.53465349zm131.340594-2.06138614h.10099c1.777981-.53139364 3.616705-.83285657 5.471287-.8970297h5.245545c2.019802 0 2.376238 2.3049505.504951 3.09504951-4.253466 1.78217823-8.584159-.19603961-11.726733 4.56237623-.470987.704084-.781292 1.5031717-.908911 2.3405941l-2.156436 15.3148514c-.146897 1.5990992-1.513781 2.8071641-3.118812 2.7564357-1.497029.0475247-3.671287-.9326733-3.409901-2.7564357l3.605941-25.28316827c.201793-.7506748.752196-1.35855053 1.479208-1.63366337 1.39604-.64752475 3.992079-.64752475 4.823762.9029703.127236.22435938.204257.473663.225743.73069307-.023655.30123059-.065313.60077583-.124753.8970297z" fill-rule="nonzero"/><path d="m24.6059406 9.54059406c4.7524752-3.68316832 13.3128713-4.25940594 17.7207921.25544554 1.1757414 1.1907414 1.9075409 2.7486984 2.0732673 4.4138614.0980355.7413274.0980355 1.492336 0 2.2336634l-2.2871287 15.3980198c-.0834857.3380825-.219817.6608669-.4039604.9564356-1.639604 2.6435644-6.5940594 2.0792079-6.1425743-.9564356l2.2514852-15.2732674c.3148515-2.150495-.2138614-4.3663366-2.3762376-5.3465346-.7323903-.3176203-1.5246399-.4736388-2.3227723-.4574258-3.5643565 0-5.7326733 2.4415842-6.2376238 5.7861386l-2.3762376 15.8554456c-.4336634 2.8574257-6.9445545 2.6435644-6.5346535 0l2.3762377-15.8554456c.3267326-2.150495-.2138614-4.3663366-2.3465347-5.3465346-.7325567-.3170855-1.5246887-.4730808-2.3227723-.4574257-3.5227723 0-5.75049503 2.4415841-6.23762374 5.7861386l-2.31089109 15.7366336c-.48118812 3.3029703-6.93861386 2.6851485-6.53465346 0l2.37623762-16.2237623c1.32475247-9.01188123 15.31485147-12.56435648 21.62376237-6.53465351zm101.1742574 24.72475244h-10.538614c-2.934653 0-6.695049-.0594059-9.338614-1.4198019-3.065346-1.5801981-3.623762-4.1584159-3.184158-7.3603961 1.265346-9.0594059 11.744554-10.2594059 19.122772-9.7366336.344555-6.00000005-7.318812-5.0613862-11.049505-5.1267327-1.568317-.029703-2.281188-1.85346537-.20198-2.97029705 3.166337-1.66336634 9.112871-1.42574258 12.40396-.14851485 3.944555 1.53267326 5.940594 4.2831683 5.346535 8.6257426zm-4.508911-14.5069307c-4.158416-.350495-11.09703-.0415841-11.881188 5.2752476-.166337 1.1227722-.148515 2.3762376.712871 3.2435643 2.376238 2.3227723 6.766337 1.9306931 9.724753 1.9306931zm-68.2158415.9683169c2.607391-.0259323 5.1918895-.4898166 7.6455446-1.3722773 1.9069307-.7425742 3.7841584-2.0257425 4.0930693-4.2118811.4633663-3.279208-1.8356436-4.5683169-4.7524752-4.5683169-2.7861387 0-5.1564357 1.4970297-6.0237624 4.2178218-.5940594 1.8950495-.7069307 3.980198-.980198 5.9405941zm-.5584158 4.2178218c-.0891089 3.1009901 2.5366337 4.8059405 5.3465347 5.120792 1.9523465.1564089 3.9123903.194102 5.8693069.1128713.4702758-.0504903.9396298.1030771 1.2891089.4217822.7544554 1.1049505-.5287129 2.049505-1.2831683 2.4594059-1.8373251.8879998-3.8662119 1.3064322-5.9049505 1.2178218-5.2514852 0-11.1207921-1.6455445-11.7980198-7.7643564-.1149258-1.0121946-.0929459-2.0352595.0653465-3.0415842l.7425743-5.2752475c1.0277227-7.3425743 6.4752475-11.67326732 13.7584158-11.67326732 2.4772277 0 5.5544555.5940594 7.6336634 2.03168317 2.4831683 1.68712875 3.380198 4.12871285 2.970297 7.05148515-1.1049505 7.8712871-12.4752475 9.2732673-18.7128713 9.3386139zm40.1108911 5.2871287 1.0990099-8.4831683c.1069307-.7722773-.0712871-1.4673268-1.009901-1.4673268l-7.6693069-.1069307c-2.019802 0-1.6752476-1.8356435-.8613862-2.6495049 1.4376238-1.4376238 3.6059406-1.6574258 4.9603961-1.6574258l5.4237623.0891089c1.4081789.0118568 2.7787965.4555969 3.9267327 1.2712872 2.0198023 1.7821782 1.9188123 3.9742574 1.4613862 6.7960396l-1.449505 10.2237624-13.9069307.0415841c-6.160396 0-12.9029703-2.0792079-11.8455445-9.6415841l1.1881188-8.5247525c.2274162-1.9069641 1.0080226-3.705663 2.2455445-5.1742574 3.0237624-3.56435648 7.859406-4.46138619 12.2970297-4.46138619h6.279208c1.4435643 0 5.1623762.08910891 6.6712873 1.67524753.861386.8970297.837624 2.46534656-1.247525 2.46534656h-10.8118812c-3.2198019 0-7.0752475.5940594-8.4594059 3.9267326-.2351051.5516087-.4007313 1.1303028-.4930693 1.7227723l-1.1524753 8.2217822c-.6594059 4.7524752 3.4752476 5.7326733 7.2653466 5.7326733z" fill-rule="nonzero"/><path d="m131.560396 50.1742574h-2.643564l.279208-1.4435643h6.944554l-.279208 1.4435643h-2.661386l-1.520792 8.0910891h-1.663366z"/><path d="m144.439604 52.5207921c.032849 1.6849015-.586503 3.3173519-1.728713 4.5564356-.911443.8853867-2.13949 1.3689034-3.409901 1.3425743-2.459406 0-3.748515-1.7821782-3.748515-3.9326733-.028373-1.7011559.61149-3.3456031 1.782178-4.580198.904021-.8618773 2.10743-1.3389811 3.356436-1.3306931 2.542574 0 3.748515 1.7643565 3.748515 3.9445545zm-5.833663-1.7405941c-.854284 1.013563-1.319708 2.2982198-1.312872 3.6237624 0 1.4435644.653466 2.6316832 2.251485 2.6316832.701328-.0091098 1.369424-.300331 1.853466-.8079208.838981-1.0295695 1.292746-2.3194393 1.283168-3.6475248 0-1.2594059-.433663-2.619802-2.192079-2.619802-.71256.0082814-1.391597.3038877-1.883168.819802z" fill-rule="nonzero"/><path d="m152.471287 57.8435644c-.935738.3301625-1.918744.5067024-2.910891.5227722-1.155296.0669109-2.288608-.335854-3.142574-1.1168316-.735602-.7675881-1.127953-1.800994-1.087129-2.8633664-.02605-1.6593716.669773-3.2482758 1.906931-4.3544554 1.143825-.9226971 2.57623-1.4127857 4.045544-1.3841584.824487-.0312885 1.645792.1187771 2.405941.4396039l-.504951 1.3425743c-.636559-.2766135-1.325981-.4104425-2.019802-.3920792-.970279-.0183814-1.914838.3126356-2.661386.9326732-.912188.8391283-1.422343 2.0280494-1.40198 3.2673268 0 1.7108911.932673 2.7029703 2.714852 2.7029703.415704.0050212.828701-.0675051 1.217821-.2138614l.451486-2.3762377h-1.681189l.267327-1.330693h3.285149z"/><path d="m160.051485 54.0237624h-3.421782l-.540594 2.8396039h3.849505l-.267327 1.4019802h-5.506931l1.782179-9.5346534h5.293069l-.273267 1.4019802h-3.635644l-.475247 2.5009901h3.433663z"/><path d="m164.423762 50.1742574h-2.643564l.285149-1.4435643h6.944554l-.285149 1.4435643h-2.661386l-1.526732 8.0910891h-1.651485z"/><path d="m171.772277 48.7306931-.736633 3.8495049h3.879207l.730694-3.8495049h1.657425l-1.811881 9.5346534h-1.633663l.80198-4.2178217h-3.885149l-.796039 4.2178217h-1.639604l1.811881-9.5346534z"/><path d="m183.362376 54.0237624h-3.421782l-.540594 2.8396039h3.849505l-.267327 1.4019802h-5.50693l1.811881-9.5346534h5.293069l-.267327 1.4019802h-3.635643l-.481188 2.5009901h3.433663z"/><path d="m186.29703 48.8851485c.772037-.1577296 1.558586-.2333977 2.346534-.2257426.834221-.0499445 1.663665.1574165 2.376238.5940594.578146.3805848.921144 1.0307115.908911 1.7227723-.029432 1.3074725-.937516 2.4303722-2.209901 2.7326733v.0415841c.623762.2435644.891089.9089109.974257 1.8118812.038189.8989674.151455 1.7931695.338614 2.6732674h-1.693069c-.134703-.7520296-.220034-1.5120704-.255446-2.2752476-.071287-1.2178217-.510891-1.6574257-1.390099-1.6574257h-.80198l-.754455 3.9326733h-1.621783zm.831683 4.1584159h.932673c1.289109 0 2.150495-.7900991 2.150495-1.8237624 0-.8792079-.689109-1.2712871-1.627723-1.2712871-.293545-.0132408-.587498.0147547-.873267.0831683z" fill-rule="nonzero"/><path d="m191.30495 59.9762376c.604521-1.20136 1.107271-2.4512807 1.502971-3.7366336l1.853465-.1366337c-.587487 1.3207379-1.303827 2.580302-2.138614 3.760396z"/><path d="m206.30495 58.2653465.635644-4.4851485c.142574-.9742574.338614-2.3168317.594059-3.4930693h-.041584c-.493069 1.1168317-1.063366 2.3762376-1.586138 3.3504951l-2.346535 4.5148514h-1.271287l-.49901-4.4435643c-.112871-1.0574258-.19604-2.2871287-.255446-3.4217822-.255445 1.0871287-.540594 2.5306931-.784158 3.4930693l-1.087129 4.4851485h-1.526732l2.417821-9.5346534h2.180198l.510892 4.4554455c.071287.849505.166336 1.8415842.184158 2.7445545h.053465c.348194-.9290181.744776-1.8391741 1.188119-2.7267327l2.304951-4.4732673h2.20396l-1.259406 9.5346534z"/><path d="m211.99604 55.550495-1.306931 2.7148515h-1.752475l4.782178-9.5346534h2.067327l1.188118 9.5346534h-1.710891l-.267326-2.7148515zm2.90495-1.2712871-.273267-2.3762376c-.041584-.5049505-.09505-1.2415842-.136634-1.7821782-.255445.5643564-.510891 1.2415841-.778218 1.7821782l-1.188119 2.3762376z" fill-rule="nonzero"/><path d="m219.908911 48.8732673c.831484-.1467332 1.674491-.2183093 2.518812-.2138614 1.269495-.0893746 2.523475.3222208 3.493069 1.1465347.760415.7274655 1.160502 1.7537747 1.093069 2.8039604.037917 1.6885004-.670664 3.3078016-1.936633 4.4257426-1.104951.9029703-2.506931 1.2891089-4.461386 1.2891089-.825889.0025294-1.651169-.0450829-2.471288-.1425743zm.130693 8.049505c.347058.0396208.696255.0574775 1.045545.0534653 1.128368.0571245 2.226399-.3760237 3.011881-1.1881188.768566-.8742472 1.17441-2.0089108 1.134653-3.1722772 0-1.580198-.837624-2.6435644-2.833663-2.6435644-.354237-.0034861-.70809.0243449-1.057426.0831683z" fill-rule="nonzero"/><path d="m233.423762 54.0237624h-3.421782l-.534653 2.8396039h3.843564l-.267327 1.4019802h-5.50099l1.811881-9.5346534h5.287129l-.267327 1.4019802h-3.635643l-.481188 2.5009901h3.439604z"/><path d="m238.936634 48.8851485c.752052-.157195 1.518856-.2328795 2.287128-.2257426.808075-.0508012 1.611308.1572902 2.29307.5940594.577301.3375192.928894.959045.920792 1.6277228-.05369 1.1307042-.868741 2.0803731-1.978218 2.3049505v.0415842c.932436.2583798 1.564626 1.1242582 1.526733 2.0910891-.004165.903655-.461601 1.7448921-1.217822 2.2396039-.790099.5940594-1.918812.7782179-3.362376.7782179-.739273.0121125-1.478314-.0355676-2.209901-.1425743zm.065346 8.0910891c.292004.0316141.585498.0474787.879208.0475248 1.229703 0 2.376238-.4990099 2.376238-1.7821782 0-1.0217822-.861386-1.4019802-1.871287-1.4019802h-.772278zm.849505-4.3425742h.766337c1.229703 0 2.120792-.5940594 2.120792-1.5564357 0-.7782178-.59406-1.1168317-1.514852-1.1168317-.292774-.0066181-.585442.0172731-.873267.0712872z" fill-rule="nonzero"/><path d="m250.865347 54.0237624h-3.427723l-.534654 2.8396039h3.849505l-.273267 1.4019802h-5.50099l1.782178-9.5346534h5.287129l-.267327 1.4019802h-3.605941l-.481188 2.5009901h3.439604z"/><path d="m255.243564 50.1742574h-2.643564l.279208-1.4435643h6.950495l-.285149 1.4435643h-2.661386l-1.526732 8.0910891h-1.657426z"/><path d="m262.823762 50.1742574h-2.643564l.279208-1.4435643h6.950495l-.285149 1.4435643h-2.661386l-1.497029 8.0910891h-1.651486z"/><path d="m272.590099 54.0237624h-3.421782l-.540594 2.8396039h3.843564l-.267327 1.4019802h-5.50693l1.782178-9.5346534h5.293069l-.273267 1.4019802h-3.635644l-.475247 2.5009901h3.433663z"/><path d="m275.518812 48.8851485c.781874-.1590236 1.578406-.2346941 2.376238-.2257426.83422-.0499445 1.663664.1574165 2.376237.5940594.578146.3805848.921144 1.0307115.908911 1.7227723-.029431 1.3074725-.937516 2.4303722-2.209901 2.7326733v.0415841c.623762.2435644.891089.9089109.974257 1.8118812.03819.8989674.151455 1.7931695.338614 2.6732674h-1.69901c-.128257-.752791-.211573-1.5125515-.249505-2.2752476-.071287-1.2178217-.510891-1.6574257-1.390099-1.6574257h-.80792l-.748515 3.9326733h-1.627723zm.837624 4.1584159h.932673c1.289109 0 2.150495-.7900991 2.150495-1.8237624 0-.8792079-.69505-1.2712871-1.627723-1.2712871-.293546-.0132408-.587498.0147547-.873267.0831683z" fill-rule="nonzero"/><path d="m301.580198 6.36237624v-2.21584159h-.784158v-.27920792h1.889109v.27920792h-.807921v2.21584159z"/><path d="m305.394059 6.36237624v-2.09702971l-.843564 2.09702971h-.130693l-.849505-2.09702971v2.09702971h-.308911v-2.49504951h.445545l.778218 1.92475248.772277-1.92475248h.445544v2.49504951z"/></g></svg>