<svg height="25" viewBox="0 0 23 25" width="23" xmlns="http://www.w3.org/2000/svg"><path d="m6.41198582 21.4460472h13.31887128c1.5102338 0 2.7422667-1.2731006 2.7422667-2.8336755v-5.7905545c0-.0051334 0-.0154004 0-.0205338 0-.0154004 0-.0256674 0-.0410678 0-.0102669 0-.0205339-.0049679-.0308008 0-.010267-.0049678-.0256674-.0049678-.0359343s-.0049679-.0205339-.0049679-.0308008c-.0049679-.010267-.0049679-.0205339-.0099358-.0359343-.0049678-.010267-.0049678-.0205339-.0099357-.0308008-.0049679-.010267-.0049679-.0205339-.0099358-.0308009-.0049678-.0102669-.0099357-.0205338-.0149036-.0359343-.0049679-.0102669-.0099357-.0205338-.0149036-.0256673-.0049679-.0102669-.0099358-.0205339-.0149036-.0308008-.0049679-.010267-.0099358-.0154004-.0149037-.0256674-.0049678-.0102669-.0149036-.0205339-.0198715-.0308008-.0049678-.0102669-.0099357-.0154004-.0198715-.0256674-.0049678-.0102669-.0149036-.0154004-.0198715-.0256673-.0049678-.0102669-.0149036-.0154004-.0198715-.0256674-.0049678-.0102669-.0149036-.0154004-.0198715-.0205338-.0099357-.010267-.0149036-.0154004-.0248393-.0256674-.0099358-.0051335-.0149036-.0154004-.0248394-.0205339-.0099357-.0051334-.0198715-.0154004-.0298072-.0205338-.0099358-.0051335-.0149037-.010267-.0248394-.0154005-.0099358-.0051334-.0198715-.0102669-.0298073-.0205338-.0099357-.0051335-.0198715-.010267-.0298072-.0154004-.0099358-.0051335-.0198715-.010267-.0298073-.0154005-.0099357-.0051334-.0198715-.0102669-.0298072-.0154004-.0099357-.0051334-.0198715-.0051334-.0298072-.0102669-.0099358-.0051335-.0248394-.010267-.0347752-.010267-.0099357 0-.0198715-.0051334-.0248393-.0051334-.0149037-.0051335-.0248394-.0051335-.039743-.0051335-.0049679 0-.0099358-.0051335-.0198715-.0051335l-16.88083728-2.4075975v-2.43326488c0-.02566736 0-.05133471-.00496788-.07186859 0-.00513347 0-.01026694-.00496787-.02053388 0-.01540041-.00496788-.03080082-.00496788-.04620123-.00496787-.01540041-.00496787-.02566735-.00993575-.04106776 0-.01026694-.00496787-.01540041-.00496787-.02566735-.00496788-.01540041-.00993575-.03080083-.01490362-.04620124 0-.00513347-.00496788-.01540041-.00496788-.02053388-.00496787-.01540041-.00993575-.02566735-.0198715-.04106776-.00496787-.00513347-.00496787-.01540041-.00993575-.02053388-.00496787-.01026694-.00993574-.02053388-.01987149-.03080082-.00496788-.01026694-.00993575-.01540041-.01490363-.02566735-.00496787-.01026694-.00993575-.01540041-.01490362-.02566735s-.01490362-.02053388-.0198715-.03080082c-.00496787-.00513347-.00993575-.01026694-.01490362-.01540042-.00993575-.01026694-.0198715-.02053388-.02980725-.03080082-.00496787-.00513347-.00993575-.01026694-.01490362-.01540041-.00993575-.01026694-.0198715-.02053388-.03477512-.03080082-.00496788-.00513347-.01490362-.01026694-.0198715-.01540041-.00993575-.01026694-.0198715-.01540041-.02980725-.02566735-.01490362-.01026694-.02980724-.02053388-.03974299-.02566735-.00496787-.00513347-.00993575-.00513347-.01490362-.01026694-.0198715-.01026694-.04471087-.02053388-.06458237-.03080082l-3.66132344-1.59137577c-.34278334-.14887064-.73524542.01540041-.87931377.36960985-.14406836.35420945.01490362.7597536.35768695.90862423l3.24898987 1.41683779v3.14168373.4979467 3.8193018 3.4137577 4.312115c0 1.4373717 1.04325363 2.6283367 2.38954759 2.8080082-.24342584.4209446-.3874942.9137577-.3874942 1.4373717 0 1.5451745 1.21712923 2.7977412 2.70749155 2.7977412 1.49036233 0 2.70749151-1.2577002 2.70749151-2.7977412 0-.5133471-.1341326-1.0010267-.3725905-1.4117043h6.0309995c-.238458.415811-.3725906.8983572-.3725906 1.4117043 0 1.5451745 1.2171293 2.7977412 2.7074916 2.7977412s2.7074915-1.2577002 2.7074915-2.7977412c0-1.5400411-1.2171292-2.7977413-2.7074915-2.7977413h-12.66807978c-.7749884 0-1.40094058-.6519507-1.40094058-1.4476386v-1.8788501c.4073657.2464066.88924952.3901437 1.40094058.3901437zm3.33841161 5.7289528c0 .7802875-.61601643 1.4117043-1.36616546 1.4117043-.75014904 0-1.36616547-.6365503-1.36616547-1.4117043s.61601643-1.4117043 1.36616547-1.4117043c.75014903 0 1.36616546.6314168 1.36616546 1.4117043zm10.70080147 0c0 .7802875-.6160164 1.4117043-1.3661654 1.4117043-.7501491 0-1.3661655-.6365503-1.3661655-1.4117043s.6160164-1.4117043 1.3661655-1.4117043c.750149 0 1.3661654.6314168 1.3661654 1.4117043zm-.7203418-7.1149897h-13.31887128c-.7749884 0-1.40094058-.6519508-1.40094058-1.4476386v-3.4137577-3.8193019-.2566735l16.12075246 2.2946612v5.1899384c0 .8059548-.63092 1.4527721-1.4009406 1.4527721z" transform="translate(0 -5)"/></svg>