<svg enable-background="new 0 0 51.976 51.976" height="51.976" viewBox="0 0 51.976 51.976" width="51.976" xmlns="http://www.w3.org/2000/svg"><path d="m44.373 7.603c-10.137-10.137-26.632-10.138-36.77 0s-10.137 26.632 0 36.77 26.632 10.138 36.77 0c10.137-10.138 10.137-26.633 0-36.77zm-8.132 28.638c-.781.781-2.047.781-2.828 0l-7.425-7.425-7.778 7.778c-.781.781-2.047.781-2.828 0s-.781-2.047 0-2.828l7.778-7.778-7.425-7.425c-.781-.781-.781-2.048 0-2.828.781-.781 2.047-.781 2.828 0l7.425 7.425 7.071-7.071c.781-.781 2.047-.781 2.828 0s.781 2.047 0 2.828l-7.071 7.071 7.425 7.425c.781.781.781 2.047 0 2.828z"/></svg>