<svg height="32" viewBox="0 0 18 32" width="18" xmlns="http://www.w3.org/2000/svg"><path d="m16.597975.00659794-4.1305229-.00659794c-4.6405007 0-7.63939614 3.06309278-7.63939614 7.80404124v3.59818556h-4.15305596c-.35887334 0-.64948454.2896495-.64948454.6469278v5.2133609c0 .3572783.29094257.6465979.64948454.6465979h4.15305596v13.1549691c0 .3572783.2906112.6465979.64948454.6465979h5.4185567c.3588733 0 .6494845-.2896495.6494845-.6465979v-13.1549691h4.8558911c.3588733 0 .6494845-.2893196.6494845-.6465979l.0019882-5.2133609c0-.1715464-.0685935-.335835-.1902062-.4572371-.1216126-.121402-.2872975-.1896907-.4596097-.1896907h-4.8575479v-3.0502268c0-1.46606186.3509205-2.21030928 2.2692195-2.21030928l2.782511-.00098969c.358542 0 .6491532-.28964948.6491532-.64659794v-4.84090721c0-.35661856-.2902798-.64593815-.6484904-.64659794z" fill-rule="evenodd"/></svg>