<svg xmlns="http://www.w3.org/2000/svg" height="25" width="35"><g transform="matrix(1 0 0 -1 0 24.949596)"><path d="M30.585 24.875H6.213L18.16 16.75H34.41v4.3c0 2.11-1.712 3.823-3.823 3.823" fill="#de3830"/><path d="M6.213.024h24.373c2.11 0 3.823 1.712 3.823 3.823v4.3H18.16z" fill="#002395"/><path d="M0 19.14V5.76l10.036 6.69z" fill="#141414"/><path d="M0 21.052V19.14l10.036-6.69L0 5.76V3.847l12.903 8.602z" fill="#ffb611"/><path d="M3.384 24.848C1.48 24.63 0 23.015 0 21.052l12.903-8.602L0 3.847C0 1.885 1.48.27 3.384.052L17.682 10.06H34.41v4.78H17.682z" fill="#007a4d"/><path d="M6.212 24.875h-2.4a3.89 3.89 0 0 1-.439-.027l14.298-10h16.726v1.912H18.16zM3.384.053c.144-.016.3-.027.44-.027h2.4L18.16 8.15H34.4v1.912H17.682z" fill="#eee"/></g></svg>