<svg xmlns="http://www.w3.org/2000/svg" viewBox="0 0 35 25.3"><path d="M.1 22.3c0 .1.1.2.1.3.1.3.2.5.3.7.7 1.2 1.9 1.9 3.3 1.9H31c1.4 0 2.7-.8 3.3-1.9.1-.2.2-.5.3-.7 0-.1.1-.2.1-.3s0-.2.1-.3c0-.2.1-.4.1-.6V3.9c0-.2 0-.4-.1-.7 0-.1 0-.2-.1-.3 0-.1-.1-.2-.1-.3-.1-.3-.2-.5-.3-.7C33.8.8 32.5 0 31.1 0H17.5v13.3H0v7.6c0 .2 0 .4.1.7z" fill="#eee"/><path d="M34.5 1.9C33.8.8 32.5 0 31.1 0H17.5v1.9zM0 21.4h35v-2H0zm17.5-9.7H35v1.9H17.5zm0-3.9H35v1.9H17.5zM0 15.6h35v1.9H0zm31.1 9.7c1.4 0 2.7-.8 3.3-1.9H.5c.7 1.2 1.9 1.9 3.3 1.9zM17.5 3.9H35v1.9H17.5z" fill="#b22334"/><path d="M0 3.9c0-.2 0-.4.1-.7-.1.2-.1.5-.1.7M.1 3c0-.1.1-.2.1-.3 0 .1-.1.2-.1.3" fill="#eee"/><path d="M17.5 0H3.9A3.84 3.84 0 0 0 0 3.9v9.7h17.5z" fill="#3c3b6e"/><path d="M1.9 2.6l.6.4-.2.8.6-.4.6.4-.2-.7.6-.4h-.8l-.2-.8-.2.7zm2 2l.6.4-.2.7.6-.4.6.4-.3-.7.6-.4h-.7l-.2-.7-.3.7zm3.9 0l.6.4-.3.7.6-.4.6.4-.2-.7.6-.4H9l-.2-.7-.3.7zm3.9 0l.6.4-.3.7.6-.4.6.4L13 5l.6-.4h-.7l-.2-.7-.2.7zM3.9 8.5l.6.4-.2.7.6-.4.6.4-.3-.7.6-.4h-.7l-.2-.7-.3.7zm3.9 0l.6.4-.3.7.6-.4.6.4-.2-.7.6-.4H9l-.2-.7-.3.7zm3.9 0l.6.4-.3.7.6-.4.6.4-.2-.7.6-.4h-.7l-.2-.7-.2.7zM5.8 2.6l.6.4-.2.8.6-.4.6.4-.2-.7.6-.4H7l-.2-.8-.2.7zm3.9 0l.6.4-.2.7.6-.4.6.4-.2-.7.6-.4H11l-.2-.7-.2.7zm3.9 0l.6.4-.2.8.6-.4.6.4-.2-.7.6-.4h-.7l-.2-.7-.2.7h-.9zM1.9 6.5l.6.5-.2.7.6-.4.6.4-.2-.7.6-.4h-.8l-.2-.8-.2.7zm4.3 1.2l.6-.4.6.4-.2-.7.6-.4H7l-.2-.8-.2.7h-.8l.6.5zm3.5-1.2l.6.5-.2.7.6-.4.6.4-.2-.7.6-.4H11l-.2-.7-.2.7h-.9zm3.9 0l.6.5-.2.7.6-.4.6.4L15 7l.6-.4h-.7l-.2-.7-.2.7h-.9zM1.9 10.4l.6.4-.2.7.6-.4.6.4-.2-.7.6-.4h-.8l-.2-.7-.2.7zm4.3 1.2l.6-.4.6.4-.2-.7.6-.4H7l-.2-.8-.2.7h-.8l.6.4zm3.5-1.2l.6.4-.2.7.6-.4.6.4-.2-.7.6-.4H11l-.2-.7-.2.7zm3.9 0l.6.4-.2.8.6-.4.6.4-.2-.7.6-.4h-.7l-.2-.7-.2.7h-.9z" fill="#fff"/></svg>