<svg xmlns="http://www.w3.org/2000/svg" viewBox="0 0 35 22.9"><path d="m32.4 0h-29.8c-1.4 0-2.6 1.2-2.6 2.6v17.7c0 1.4 1.2 2.6 2.6 2.6h29.8c1.4 0 2.6-1.2 2.6-2.6v-17.7c0-1.4-1.2-2.6-2.6-2.6z" fill="#41479b"/><path d="M35 2.2C34.8.9 33.7 0 32.4 0h-.7L20.5 7.3V0h-6v7.3L3.3 0h-.7C1.3 0 .2.9 0 2.2l9.6 6.3H0v6h9.6L0 20.7c.2 1.2 1.3 2.2 2.6 2.2h.7l11.2-7.3v7.3h6v-7.3l11.2 7.3h.7c1.3 0 2.4-.9 2.6-2.2l-9.6-6.3H35v-6h-9.6z" fill="#f5f5f5"/><path d="M19.3 0h-3.6v9.7H0v3.6h15.7v9.6h3.6v-9.6H35V9.7H19.3zM1.7 22.8l12.8-8.3h-2.2L.6 22a4.44 4.44 0 0 0 1.1.8zm22-8.3h-2.2l12.4 8a2.36 2.36 0 0 0 .8-.9zM.3 1.4l10.8 7h2.2L1.1.5c-.4.3-.6.6-.8.9zm22.4 7L34.3.9c-.3-.3-.7-.6-1.1-.7L20.5 8.4z" fill="#ff4b55"/></svg>