<svg height="32" viewBox="0 0 32 32" width="32" xmlns="http://www.w3.org/2000/svg"><path d="m22 0c5.522 0 10 4.478 10 10v12c0 5.522-4.478 10-10 10h-12c-5.522 0-10-4.478-10-10v-12c0-5.522 4.478-10 10-10zm7 22v-12c0-3.86-3.14-7-7-7h-12c-3.86 0-7 3.14-7 7v12c0 3.86 3.14 7 7 7h12c3.86 0 7-3.14 7-7zm-13-14c4.418 0 8 3.582 8 8s-3.582 8-8 8-8-3.582-8-8 3.582-8 8-8zm0 13c2.756 0 5-2.244 5-5 0-2.758-2.244-5-5-5s-5 2.242-5 5c0 2.756 2.244 5 5 5zm8.6-12.534c-.5887355 0-1.066-.47726446-1.066-1.066s.4772645-1.066 1.066-1.066 1.066.47726446 1.066 1.066-.4772645 1.066-1.066 1.066z"/></svg>