<svg height="47" viewBox="0 0 70 47" width="70" xmlns="http://www.w3.org/2000/svg"><g fill-rule="evenodd" transform="translate(0 -1)"><path d="m18.4836842 21.2362105c-1.2992982 0-2.2952631.4294737-2.2952631.4294737l-.2750878 1.68s.821579-.3435789 2.0656141-.3435789c.7061403 0 1.2219298.0808421 1.2219298.6707368 0 .3587368-.0626316.4913684-.0626316.4913684s-.5563158-.0467368-.8142105-.0467368c-1.6394737 0-3.3612281.7174737-3.3612281 2.8888421 0 1.7103158 1.1285965 2.1006316 1.8298246 2.1006316 1.3373684 0 1.9145614-.8917895 1.9440351-.8943158l-.0626316.7452631h1.6689474l.7442105-5.368421c-.0012281-2.28-1.9329825-2.3532632-2.6035088-2.3532632zm-.9357895 6.2374737c-.5882456 0-.7417543-.4610526-.7417543-.736421 0-.5330527.281228-1.1747369 1.6701754-1.1747369.3242105.0012632.3585965.0353684.4126316.0454737.0368421.3284211-.1989474 1.8656842-1.3410527 1.8656842z" fill-rule="nonzero"/><path d="m24.5110526 23.0362105c.2664913 0 1.294386.0871579 1.294386.0871579l.2394737-1.720421s-.6656141-.1528421-1.7487719-.1528421c-1.4024562 0-2.8245615.576-2.8245615 2.5452631 0 2.2332632 2.3726316 2.0058948 2.3726316 2.9482105 0 .6265264-.6631579.6783158-1.1740351.6783158-.8854386 0-1.681228-.3107368-1.6836842-.2981052l-.2529824 1.7065263c.0454386.0126316.5366666.2374737 2.1270175.2374737.4261404 0 2.8663158.1136842 2.8663158-2.4770527 0-2.4227368-2.258421-1.944-2.258421-2.9178947 0-.4850526.3671929-.6366316 1.0426315-.6366316z"/><path d="m28.4985965 23.256h1.0033333l.2419298-1.8341053h-.945614l.192807-1.1368421h-1.8949122c-.0417544.0416842-1.118772 6.4117895-1.118772 7.1848421 0 1.1507369.6275439 1.6610527 1.5105263 1.6522106.6914035-.0050527 1.2305264-.2021053 1.4208772-.2564211l.2370176-1.6572631c-.1301755 0-.3205263.0581052-.488772.0581052-.6594736 0-.7319298-.3625263-.6901754-.6290526z"/><path d="m36.4405263 12.6151579h-3.3821052c-.454386.6315789-.8817544 1.3035789-1.2685965 1.960421h6.0335087c-.4187719-.6846315-.8817544-1.3389473-1.382807-1.960421z"/><path d="m63.3983368 35.3008793c-.084-.1270589-.154-.2230589-.21-.282353-.0308-.0282353-.07-.0592941-.1204-.0734117.1204-.0084706.2212-.0536471.294-.1298824.07-.0762353.1092-.1665882.1092-.2710588 0-.0734118-.0224-.144-.0644-.2089412s-.1036-.1129412-.1792-.1383529c-.07-.0282353-.1904-.042353-.3556-.042353h-.4872v1.4258824h.2296v-.6042353h.1316c.0784 0 .1428.0169412.1792.0508235.0588.048.1428.1581177.2408.3303529l.1232.2258824h.2828zm-.5096-.5138824h-.28v-.4291765h.2632c.1092 0 .182.0084706.224.0254118.0448.0169412.0728.0423529.098.0734118.0224.0338823.0336.0705882.0336.1101176 0 .0649412-.0224.1214118-.07.1609412-.0476.0367059-.14.0592941-.2688.0592941z" fill-rule="nonzero"/><path d="m38.8487719 16.4993684h-8.1138596c-.5182456 1.0092632-.8621053 1.7722105-.9591228 1.9616842h9.8417544c-.2222807-.6745263-.4777193-1.3275789-.768772-1.9616842z"/><path d="m12.6405263 19.6837895-1.8678947 5.6968421-.0970176-5.6968421h-2.765614l-1.5154386 9.2829473h1.82859649l1.1531579-6.9978947.16947368 6.9978947h1.30543863l2.4352631-6.9978947-1.0794737 6.9978947h1.9403509l1.4945614-9.2829473z"/><g fill-rule="nonzero"><path d="m49.2075439 21.2362105c-1.3017544 0-2.2964913.4294737-2.2964913.4294737l-.2763158 1.68s.8228071-.3435789 2.0656141-.3435789c.7061403 0 1.2231579.0808421 1.2231579.6707368 0 .3587368-.0650877.4913684-.0650877.4913684s-.5550878-.0467368-.8154386-.0467368c-1.6382457 0-3.358772.7174737-3.358772 2.8888421 0 1.7103158 1.1298246 2.1006316 1.8298246 2.1006316 1.3361403 0 1.9133333-.8917895 1.9440351-.8943158l-.0626316.7452631h1.6677193l.7442105-5.368421c.0036842-2.28-1.9292982-2.3532632-2.5998245-2.3532632zm-.9333334 6.2374737c-.5894737 0-.7417544-.4610526-.7417544-.736421 0-.5330527.2812281-1.1747369 1.6701755-1.1747369.3229824.0012632.3573684.0353684.4126316.0454737.035614.3284211-.2014036 1.8656842-1.3410527 1.8656842z"/><path d="m64.2633404 28.4782663c-.1148-.2145883-.2828-.378353-.4928-.4912942-.2072-.1157647-.42-.1722353-.644-.1722353-.2156.0028236-.4312.0592942-.644.1722353-.21.1129412-.3724.2767059-.49.4912942-.1176.2117647-.1764.432-.1764.6607058 0 .2287059.0588.4461177.1764.6550589.1148.2089411.2772.3755294.4844.4941176.21.1157647.4256.1750588.6496.1750588.2296 0 .448-.0592941.6524-.1750588.2072-.1185882.3696-.2851765.4844-.4941176.1204-.2089412.1736-.426353.1736-.6550589 0-.2343529-.056-.4545882-.1736-.6607058zm-.182 1.205647c-.0952.1750588-.2296.3077647-.406.4122353-.1736.096-.3528.1468235-.5404.1468235-.1904 0-.3724-.0508235-.5432-.1468235-.1764-.0988235-.308-.2343529-.4088-.4122353-.1008-.1778823-.1456-.3585882-.1456-.5477647s.0476-.3727059.1512-.5505882c.098-.1750589.2296-.3105883.4088-.4094118s.3556-.1411765.5376-.1411765.3612.0451765.532.1411765c.1792.0988235.3108.2315294.4088.4094118.098.1778823.1512.3614117.1512.5505882s-.0476.3727059-.1456.5477647z"/><path d="m63.1567509 29.2415108c-.0812-.1327058-.154-.2258823-.2072-.2823529-.0336-.0310588-.07-.0564706-.1204-.0734118.1204-.0084706.2184-.053647.2912-.1298823.07-.0734118.112-.1694118.112-.2710588 0-.0705883-.0224-.144-.0672-.2089412-.0448-.0621177-.1036-.1101177-.1736-.138353s-.1932-.0423529-.3584-.0423529h-.4928v1.4230588h.2296v-.6042353h.1316c.0812 0 .1456.0169412.1848.048.0588.0508236.1372.1581177.2408.336l.1204.2230588h.2828zm-.504-.5223529h-.2772v-.432h.2576c.112 0 .1848.0084706.2296.0225882.0364.0197647.07.0395294.0924.0762353.0252.0367059.0364.0677647.0364.1157647 0 .0621177-.0252.1157647-.0672.1552941-.0532.048-.14.0621177-.2716.0621177z"/></g><path d="m55.6475439 21.3284211c-.8485965 0-1.4785965 1.1911578-1.4785965 1.1911578l.1694737-1.0951578h-1.765965l-1.1826315 7.5562105h1.9452631c.5538597-3.2286316.6545614-5.8471579 1.9698246-5.3684211.2321052-1.248.455614-1.7317894.7073684-2.2585263 0 .0012632-.1178947-.0252631-.3647368-.0252631z"/><path d="m60.5352632 19.6938947-.4089474 2.6084211s-.7122807-1.0143158-1.8298246-1.0143158c-1.7377193.0012632-3.1843859 2.1549474-3.1843859 4.6282105 0 1.5978948.7724561 3.1629474 2.3492982 3.1629474 1.1359649 0 1.7647369-.8147368 1.7647369-.8147368l-.0822808.696h1.8433334l1.4491228-9.2703158zm-2.4033334 7.4905264c-.682807 0-1.0021052-.5886316-1.0021052-1.5132632 0-1.512.6594736-2.5086316 1.4933333-2.5086316.6803509.0012632 1.0303509.4825263 1.0303509 1.6168421 0 1.0294737-.4949123 2.4050527-1.521579 2.4050527z" fill-rule="nonzero"/><path d="m67.5757895 1.18610526h-65.79017546c-.98736843 0-1.78561404.82231579-1.78561404 1.83663158v42.56210526c0 1.0143158.79824561 1.8366316 1.78561404 1.8366316h65.79017546c.9873684 0 1.785614-.8223158 1.785614-1.8366316v-42.56210526c0-1.01431579-.7982456-1.83663158-1.785614-1.83663158zm-4.4419299 33.57347364c-.0515789.096-.1215789.1692632-.2124561.2210527s-.1866667.0783158-.2849123.0783158c-.1007017 0-.1964912-.0265263-.2873684-.0783158-.0896491-.0517895-.1608772-.1250527-.2136842-.2210527-.0503509-.0922105-.0761404-.1907368-.0761404-.2930526s.0257895-.1995789.0773685-.2955789c.0503508-.096.1240351-.168.2149122-.2197895.0921053-.0492632.1854386-.0757895.2836843-.0757895.0970175 0 .1903508.0265263.281228.0757895.0921053.0517895.1645614.1237895.2149123.2197895.051579.096.0761404.1945263.0761404.2955789s-.0221053.2033684-.0736843.2930526zm1.2870176-10.4551578c.0024561 10.1115789-7.962807 18.312-17.7947368 18.3145263-4.5978948.0012631-8.7905264-1.7911579-11.9491229-4.735579-3.1585964 2.9393684-7.3426315 4.7305263-11.9331579 4.7305263-9.8257894 0-17.80087714-8.2016842-17.80087714-18.3094736 0-10.0673685 7.91245614-18.24505268 17.68666664-18.31073689h.1142105c4.5905264 0 8.7757895 1.7911579 11.934386 4.73052629 3.1573684-2.94063155 7.3450877-4.73305261 11.9392983-4.73431576 9.8319298-.00378948 17.8033333 8.19284206 17.8057894 18.30568416-.0024561.0025264-.0024561.0037895-.0024561.0088422z" fill-rule="nonzero"/><path d="m32.8545614 35.8812632c.5636842.7098947 1.1605263 1.3869473 1.82 2.0008421.0147368-.0138948.0307018-.0265264.0454386-.0391579 0 0-.0012281 0-.0012281-.0012632h.0036842c.6484211-.6075789 1.2538597-1.2618947 1.8077193-1.960421z"/><path d="m35.2787719 25.8315789s.2492983-1.2631578.2492983-1.7772631c0-1.2846316-.6214035-2.8509474-2.7017544-2.8509474-1.9059649.0012632-3.3170176 2.1132632-3.3170176 4.5006316 0 2.7549474 1.767193 3.4092632 3.2740351 3.4092632 1.3901755 0 2.0017544-.3208421 2.0017544-.3208421l.3340351-1.879579s-1.0573684.48-2.012807.48c-2.0349123 0-1.6787719-1.5612632-1.6787719-1.5612632zm-2.4463158-2.8787368c1.0696492 0 .8719299 1.2366316.8719299 1.3351579h-2.1036842c0-.1275789.1989473-1.3351579 1.2317543-1.3351579z" fill-rule="nonzero"/><path d="m44.1675439 21.4623158c.964035 0 1.7389473.5570526 1.7389473.5570526l.3094737-2.0652631s-1.1470175-.4774737-2.134386-.4774737c-2.1871929 0-4.3154385 1.9528421-4.3154385 5.6197895 0 2.4315789 1.1482456 4.0370526 3.4103508 4.0370526.6385965 0 1.6578948-.2665263 1.6578948-.2665263l.3389473-2.1271579s-.928421.4787368-1.5670175.4787368c-1.3459649-.0012631-1.8850877-1.0572631-1.8850877-2.1890526 0-2.3027369 1.1568421-3.5671579 2.4463158-3.5671579z"/><path d="m30.4782456 32.0349474c.3082456.6808421.6668421 1.3288421 1.0512281 1.960421h6.3159649c.3831579-.6290526.7282456-1.2833684 1.0364912-1.960421z"/><path d="m39.7317544 21.3309474c-.8485965 0-1.4773684 1.1911579-1.4773684 1.1911579l.1707017-1.0951579h-1.7647368l-1.1826316 7.5562105h1.9452632c.5514035-3.2273684.6545614-5.8471579 1.9698245-5.3684211.2308772-1.2492631.4531579-1.7330526.7049123-2.2610526 0 0-.1178947-.0252631-.3659649-.0227368z"/></g></svg>