<svg height="104" viewBox="0 0 104 104" width="104" xmlns="http://www.w3.org/2000/svg" xmlns:xlink="http://www.w3.org/1999/xlink"><filter id="a" height="146.7%" width="146.7%" x="-23.4%" y="-23.4%"><feOffset dx="-5" dy="5" in="SourceAlpha" result="shadowOffsetOuter1"/><feGaussianBlur in="shadowOffsetOuter1" result="shadowBlurOuter1" stdDeviation="3"/><feColorMatrix in="shadowBlurOuter1" result="shadowMatrixOuter1" type="matrix" values="0 0 0 0 0   0 0 0 0 0   0 0 0 0 0  0 0 0 0.32 0"/><feMerge><feMergeNode in="shadowMatrixOuter1"/><feMergeNode in="SourceGraphic"/></feMerge></filter><g fill="#fff" filter="url(#a)" transform="translate(11 1)"><path d="m45.6783622.0463622c-25.2015197 0-45.632 20.4301238-45.632 45.632 0 25.2018763 20.4304803 45.632 45.632 45.632 25.2015198 0 45.632-20.4301237 45.632-45.632 0-25.2018762-20.4304802-45.632-45.632-45.632zm15.77156 48.0508525-22.816 14.26c-.4616675.2882303-.9866137.4331475-1.51156.4331475-.475571 0-.951855-.118358-1.3828635-.357926-.9065795-.502665-1.4691365-1.456659-1.4691365-2.494074v-28.52c0-1.037415.562557-1.991409 1.4691365-2.494074.9065795-.505517 2.0151163-.474858 2.8944235.0752215l22.816 14.26c.833497.5222725 1.34044 1.4358038 1.34044 2.4188525 0 .9830488-.506943 1.8967583-1.34044 2.4188525z"/></g></svg>