<svg height="63" viewBox="0 0 63 63" width="63" xmlns="http://www.w3.org/2000/svg"><path d="m31.1466667 0c-17.201829 0-31.1466667 13.9448377-31.1466667 31.1466667s13.9448377 31.1466666 31.1466667 31.1466666 31.1466666-13.9448376 31.1466666-31.1466666c-.0235025-17.1920846-13.9545821-31.12316416-31.1466666-31.1466667zm12.6293333 55.4666667.2986667-43.1573334c-7.8506667 0-9.216 35.84-9.216 35.84h4.3946666v9.1733334c-3.9724658 1.2387642-8.1756368 1.5525426-12.288.9173333v-18.88c1.9882184-.6623482 3.52621-2.2561218 4.1173334-4.2666667.1554738-.5482877.2344428-1.1154285.2346666-1.6853333v-19.9893333c0-.5891038-.4775629-1.0666667-1.0666666-1.0666667-.5891038 0-1.0666667.4775629-1.0666667 1.0666667v18.0906666h-1.4506667v-18.0906666c.0001162-.5808722-.4645774-1.0550493-1.0453333-1.0666667-.584338.0113496-1.0553171.4823286-1.0666667 1.0666667v18.0906666h-1.5573333v-18.0906666c0-.5891038-.4775629-1.0666667-1.0666667-1.0666667-.5891037 0-1.0666666.4775629-1.0666666 1.0666667v18.0906666h-1.6213334v-18.0906666c0-.5891038-.4775629-1.0666667-1.0666666-1.0666667-.5891038 0-1.0666667.4775629-1.0666667 1.0666667v19.9466666c.0002239.5699048.0791928 1.1370456.2346667 1.6853334.5911233 2.0105448 2.1291149 3.6043185 4.1173333 4.2666666v17.7706667c-12.3436048-4.1157728-20.08346365-16.3526862-18.51281788-29.2692352 1.57064578-12.9165489 12.01759148-22.94195617 24.98784628-23.97957655 12.9702547-1.03762038 24.8781944 7.19939605 28.4823691 19.70195935 3.6041748 12.5025633-2.0917887 25.8143425-13.6240642 31.8401857z" fill="#db4320"/></svg>