<svg height="64" viewBox="0 0 56 64" width="56" xmlns="http://www.w3.org/2000/svg"><path d="m40.6588235 23.4352941-8.96 8.9411765c-1.7033285-1.0744826-3.9267082-.8073628-5.3270588.64-1.7049354 1.7101335-1.7007216 4.4785938.0094119 6.1835293 1.7101334 1.7049355 4.4785938 1.7007217 6.1835293-.0094117 1.4443734-1.3941382 1.7116244-3.6107498.64-5.3082353l8.9411765-8.9411764zm-11.0870588 14.9082353c-.860315 0-1.6359178-.5182412-1.9651461-1.3130686s-.1472462-1.7097134.4610884-2.3180479c.6083345-.6083346 1.5232205-.7903167 2.3180479-.4610884s1.3130686 1.1048311 1.3130686 1.9651461c-.0813623 1.1393411-.9877177 2.0456964-2.1270588 2.1270588zm4.3105882-29.40235293v-2.56h2.1458824v-6.38117647h-12.8376471v6.38117647h2.1270589v2.56c-4.7847563.66101338-9.2862931 2.65734713-12.9882353 5.76000003l-1.5058824-1.5247059 1.0729412-1.0729412-3.40705884-3.57647058-6.60705882 6.81411768 3.40705882 3.4823529 1.07294118-1.0729412 1.48705882 1.4870589c-3.92465063 4.861739-6.03440381 10.9380944-5.96705882 17.1858823-.00000015 9.8184991 5.2381067 18.8911665 13.74117636 23.8004162 8.5030696 4.9092496 18.9792835 4.9092496 27.4823532 0 8.5030696-4.9092497 13.7411765-13.9819171 13.7411763-23.8004162.1366532-13.5586909-9.5974749-25.2077296-22.9647059-27.48235293zm-4.3105882 51.59529413c-9.8458475-.000003-18.7218543-5.9320057-22.48793615-15.0291119s-1.68030304-19.5671434 5.28445525-26.5265152c6.9647583-6.9593718 17.4364062-9.03704937 26.5305958-5.2639303 9.0941897 3.7731191 15.0193234 12.6537128 15.0117086 22.4995574.0201094 6.4594742-2.5382989 12.659911-7.1076257 17.2257039-4.5693267 4.5657928-10.7717411 7.1194031-17.2311978 7.0942961z" fill="#db4320" transform="translate(-1)"/></svg>