<svg height="63" viewBox="0 0 58 63" width="58" xmlns="http://www.w3.org/2000/svg"><g fill="#db4320" fill-rule="evenodd"><path d="m13.6711111 11.1111111h17.4933333c2.0621827.0814673 3.8132609-1.49608058 3.9466667-3.55555554-.1334058-2.05947497-1.884484-3.6370229-3.9466667-3.55555556h-17.4933333c-2.0655282-.08184152-3.82184549 1.49333093-3.96444443 3.55555556.14259894 2.06222462 1.89891623 3.63739704 3.96444443 3.55555554zm0-5.13777777h17.4933333c.8923236-.00878236 1.6528897.64530443 1.7777778 1.52888889-.1329234.8765121-.8913006 1.52113277-1.7777778 1.51111111h-17.4933333c-.9198329.05624498-1.730152-.59972767-1.8666667-1.51111111.1281887-.91850658.9409067-1.58416131 1.8666667-1.52888889z" fill-rule="nonzero"/><path d="m5.90222222 62.3288889h33.03111108c3.2597074 0 5.9022223-2.6425149 5.9022223-5.9022222v-19.5555556c1.2006798-.5205781 2.554398-.5650665 3.7866666-.1244444.5692216.1995242 1.0318246.6235769 1.28 1.1733333.2878244.7276271.9953633 1.2016782 1.7777778 1.1911111 1.7115785-.0363173 3.3451523-.7227996 4.5688889-1.92 1.0714527-1.0549144 1.6736684-2.4963881 1.6711111-4 0-2.4888889-2.0444444-4.9955555-6.1511111-4.9955555-.1066667 0-3.0577778-.1955556-7.0044445-.3911112v-21.90222218c.0002346-3.23213744-2.5992082-5.86328081-5.8311111-5.90222222h-33.03111108c-3.25970732 0-5.90222222 2.6425149-5.90222222 5.90222222v50.52444448c0 3.2597073 2.6425149 5.9022222 5.90222222 5.9022222zm50.04444448-29.1377778c-.0180084.9316543-.4010377 1.8190053-1.0666667 2.4711111-.8142152.7885095-1.889771 1.2503658-3.0222222 1.2977778-.4686159-1.0293934-1.33458-1.8247975-2.4-2.2044444-1.7667419-.6548293-3.7197814-.5910045-5.44.1777777-1.8082927.774569-3.863217.7291921-5.6355556-.1244444v-5.2444445c6.8444445.2488889 13.1911111.64 13.3155556.64 3.0755555.0177778 4.1955555 1.5466667 4.2488889 2.9866667zm-19.5555556 9.8844445c.0172715.2067137-.0613823.4099028-.2133333.5511111-.1356134.1383759-.3218173.2154258-.5155556.2133333-3.0577778 0-5.0133333.1066667-6.9688889.1777778l-5.8666666.1422222c-4.5333334.1066667-9.0666667.2133333-14.86222226.32-.20258294.0024545-.39659468-.0816173-.53333333-.2311111-.18364232-.1266732-.30102173-.3288266-.32-.5511111l.64-15.7511111c.01857575-.2012689.1065636-.3898143.24888889-.5333334.15244345-.1323964.34931177-.2022529.55111111-.1955555 5.68888889.3911111 10.23999999.7644444 14.71999999 1.1377778h.3022222l4.5511111.4444444c2.1155556.2133333 4.2133334.4266667 7.3955556.64h.7466667v7.1111111 1.4755556c-.0177778 2.1155555-.0177778 2.6311111.0533333 5.0488889zm-34.3111111-37.17333338c.00973185-2.10691081 1.71531141-3.81249037 3.82222222-3.82222222h33.03111108c2.1069108.00973185 3.8124904 1.71531141 3.8222223 3.82222222v21.75999998c-2.2044445-.1066666-4.5866667-.1955555-6.8977778-.2666666h-.0888889c-3.1644445-.2133334-5.3333333-.4266667-7.4133333-.6577778-1.4222223-.1422222-2.8444445-.2844445-4.5866667-.4266667h-.3022222c-4.48-.3733333-9.0666667-.7466667-14.93333337-1.1377778-.70357857-.0071377-1.38356804.253419-1.90222222.7288889-.57141453.5156976-.91104125 1.2398074-.94222222 2.0088889l-.64 15.7333333c-.02209405.7863098.27255186 1.548546.81777778 2.1155556.53790294.5364344 1.26699612.8370255 2.02666666.8355556l14.91555557-.3733334 5.8666667-.1422222 6.9333333-.16c.7620855-.0133326 1.4864896-.3338654 2.0088889-.8888889.5282434-.5465419.8107385-1.2848814.7822222-2.0444444 0-2.3644445 0-2.88 0-4.8888889v-1.0133334c1.406083.477682 2.9085544.5998342 4.3733333.3555556v18.9866667c0 2.1011366-1.7033078 3.8044444-3.8044444 3.8044444h-33.06666668c-2.10403183.0000228-3.81243603-1.7004354-3.82222222-3.8044444z" fill-rule="nonzero"/><circle cx="41.351111" cy="32.497778" r="1.155556"/><circle cx="52.871111" cy="33.475556" r="1.155556"/><path d="m9.70666667 29.6355556c-.7050607.695635-.91036755 1.7529434-.51688304 2.6618926.3934845.9089492 1.30492777 1.4828159 2.29466077 1.444774.9897331.0380419 1.9011764-.5358248 2.2946609-1.444774s.1881776-1.9662576-.5168831-2.6618926c-.463122-.4869845-1.1057392-.7626676-1.7777778-.7626676-.6720385 0-1.3146558.2756831-1.77777773.7626676zm2.29333333 2.3644444c-.3313752.3229253-.8597359.3229253-1.1911111 0-.1642309-.1545428-.2573547-.3700445-.2573547-.5955556s.0931238-.4410127.2573547-.5955555c.1604588-.159904.377914-.2494444.6044444-.2488889.2207567.0022016.4316706.0916802.5866667.2488889.159904.1604588.2494444.377914.2488889.6044444-.0022016.2207567-.0916802.4316706-.2488889.5866667z" fill-rule="nonzero"/></g></svg>