<svg height="30" viewBox="0 0 30 30" width="30" xmlns="http://www.w3.org/2000/svg"><path d="m29.7372506 28.4700665-7.2904657-7.2904656c1.9556541-2.248337 3.1396896-5.1818182 3.1396896-8.3880266 0-7.05764969-5.7405765-12.7915743-12.7915743-12.7915743-7.05764965 0-12.79157426 5.7405765-12.79157426 12.7915743s5.7405765 12.7915743 12.79157426 12.7915743c3.2062084 0 6.1396896-1.1840355 8.3880266-3.1396896l7.2904657 7.2904656c.172949.172949.4057649.2660754.631929.2660754s.4589801-.0864745.6319291-.2660754c.345898-.345898.345898-.9179601 0-1.2638581zm-27.94456767-15.6784922c0-6.06651887 4.93569844-10.99556543 10.99556537-10.99556543 6.0665189 0 10.9955654 4.93569845 10.9955654 10.99556543 0 6.0598669-4.9290465 11.0022173-10.9955654 11.0022173-6.05986693 0-10.99556537-4.9356985-10.99556537-11.0022173z"/></svg>