<svg height="32" viewBox="0 0 38 32" width="38" xmlns="http://www.w3.org/2000/svg"><path d="m37.9999379 3.69047843c-1.3986111.62625882-2.8993006 1.05098039-4.4760523 1.24059608 1.6099706-.97424314 2.8423628-2.51952941 3.4264575-4.3552-1.5101895.90221176-3.1771601 1.55733333-4.9533496 1.91247059-1.4223301-1.53330196-3.4454576-2.4883451-5.6894445-2.4883451-4.3050523 0-7.7956503 3.52734118-7.7956503 7.87532549 0 .61665882.0688595 1.21894902.2018595 1.79488627-6.4777582-.32878431-12.22178108-3.46497254-16.0661765-8.23052549-.67201634 1.16141177-1.05431373 2.51469804-1.05431373 3.95927844 0 2.73311372 1.37725164 5.14465879 3.46687909 6.55554509-1.27753268-.0431686-2.47906536-.3983059-3.53095752-.9886118v.0983844c0 3.8152784 2.68800327 6.9994666 6.25217974 7.7241725-.65301634.1775686-1.34161111.2759529-2.05398693.2759529-.50337581 0-.9901732-.0503843-1.46747059-.1463843.99253268 3.1314196 3.87053595 5.4085647 7.28041504 5.4709961-2.66664379 2.1116235-6.02902288 3.3665882-9.68105883 3.3665882-.62923529 0-1.24903268-.0384-1.85926797-.1079843 3.45023856 2.2388079 7.54635294 3.5441569 11.9487647 3.5441569 14.3399085 0 22.1783399-12.0025726 22.1783399-22.41179609l-.0261405-1.01979607c1.531549-1.10387451 2.8565196-2.49079216 3.8989738-4.06970981z" fill-rule="evenodd"/></svg>