<svg height="30" viewBox="0 0 26 30" width="26" xmlns="http://www.w3.org/2000/svg"><g fill-rule="evenodd"><path d="m12.6521739 16.1614907h.0993789.0372671.0621118c1.8198758-.0310559 3.2919254-.6708075 4.378882-1.89441 2.3913043-2.6956521 1.9937888-7.31677014 1.9503105-7.75776393-.1552795-3.31055901-1.7204969-4.89440994-3.0124223-5.63354037-.962733-.55279503-2.0869566-.85093168-3.3416149-.8757764h-.0434783c-.0062112 0-.0186335 0-.0248447 0h-.0372671c-.689441 0-2.0434783.11180124-3.34161491.85093168-1.30434783.73913043-2.89440994 2.32298136-3.04968944 5.65838509-.04347826.44099379-.44099379 5.06211183 1.95031056 7.75776393 1.08074534 1.2236025 2.55279499 1.8633541 4.37267079 1.89441zm-4.66459626-9.49689443c0-.01863354.00621118-.03726708.00621118-.04968944.20496894-4.45341615 3.36645958-4.93167702 4.72049688-4.93167702h.0248447.0496895c1.6770186.03726708 4.5279503.7204969 4.7204969 4.93167702 0 .01863354 0 .03726708.0062112.04968944.0062111.04347826.4409937 4.26708073-1.5341615 6.49068323-.7826087.8819876-1.826087 1.3167702-3.1987578 1.3291925-.0124224 0-.0186335 0-.0310559 0s-.0186335 0-.0310559 0c-1.3664596-.0124223-2.4161491-.4472049-3.19254659-1.3291925-1.9689441-2.2111801-1.54658385-6.45341615-1.54037267-6.49068323z" fill-rule="nonzero"/><path d="m25.515528 23.826087c0-.0062112 0-.0124224 0-.0186336 0-.0496894-.0062112-.0993789-.0062112-.1552795-.0372671-1.2298137-.1180125-4.10559-2.8136646-5.0248447-.0186336-.0062112-.0434783-.0124224-.0621118-.0186335-2.8012423-.7142858-5.1304348-2.3291926-5.1552795-2.3478261-.378882-.2670808-.9006211-.1739131-1.1677019.2049689-.2670807.378882-.173913.9006211.204969 1.1677019.10559.0745341 2.5776397 1.795031 5.6708074 2.5900621 1.447205.5155279 1.6086957 2.0621118 1.6521739 3.4782609 0 .0559006 0 .10559.0062112.1552795.0062112.5590062-.0310559 1.4223602-.1304348 1.9192546-1.0062112.5714286-4.9503105 2.5465839-10.9503105 2.5465839-5.97515532 0-9.94409942-1.9813665-10.95652178-2.5527951-.09937889-.4968944-.14285715-1.3602484-.13043479-1.9192546 0-.0496895.00621118-.0993789.00621118-.1552795.04347826-1.4161491.20496895-2.9627329 1.65217392-3.4782609 3.0931677-.7950311 5.56521739-2.5217391 5.67080745-2.5900621.37888199-.2670808.47204969-.7888199.20496894-1.1677019-.26708074-.378882-.78881987-.4720497-1.16770186-.2049689-.02484472.0186335-2.34161491 1.6335404-5.1552795 2.3478261-.02484472.0062112-.04347826.0124223-.0621118.0186335-2.69565218.9254659-2.77639752 3.8012422-2.8136646 5.0248447 0 .0559007 0 .1055901-.00621118.1552795v.0186336c-.00621118.3229813-.01242236 1.9813664.31677019 2.8136646.0621118.1614907.17391304.2981366.32298136.3913043.18633541.1242236 4.65217392 2.9689441 12.12422357 2.9689441 7.4720497 0 11.9378882-2.8509317 12.1242236-2.9689441.1428572-.0931677.2608696-.2298136.3229814-.3913043.310559-.826087.3043478-2.4844721.2981367-2.8074534z"/></g></svg>