<svg height="47" viewBox="0 0 70 47" width="70" xmlns="http://www.w3.org/2000/svg"><g fill-rule="evenodd"><path d="m67.5757895.18610526h-65.79017546c-.98736843 0-1.78561404.82231579-1.78561404 1.83663158v42.56210526c0 1.0143158.79824561 1.8366316 1.78561404 1.8366316h65.79017546c.9873684 0 1.785614-.8223158 1.785614-1.8366316v-42.56210526c0-1.01431579-.7982456-1.83663158-1.785614-1.83663158zm-62.20543862 13.97178944h7.40280702c.998421.0391579 1.802807.3663158 2.0803509 1.464l1.61 7.9642106c-1.5817544-4.1658948-5.3936842-7.632-11.15456143-9.0669474zm8.95754382 18.1642106-4.2761403-15.0265264c3.0738596 2.023579 5.6921052 5.2345264 6.614386 7.4690527l.4985964 1.8555789 4.6764913-12.2892631h5.0596491l-7.5194737 17.9873684zm16.291579.0126315h-4.7747369l2.9854386-18.0227368h4.777193zm8.3091228.2703158c-2.1405263-.0227368-4.2024561-.4585263-5.32-.9625263l.6717544-4.0332631.6152631.2867368c1.5682456.6732632 2.5838597.9461053 4.4959649.9461053 1.3717544 0 2.8417544-.552 2.8552632-1.759579.0085965-.7894737-.6152632-1.3528421-2.4745614-2.2370526-1.8126316-.8614737-4.2122807-2.3065263-4.182807-4.8947369.0257895-3.5027368 3.3514035-5.9469473 8.0708772-5.9469473 1.8494737 0 3.3317544.3915789 4.2773684.7566316l-.6447368 3.9069473-.4310527-.208421c-.8792982-.3637895-2.0103509-.7149474-3.5736842-.6896842-1.8691228 0-2.7361403.8008421-2.7361403 1.5498947-.0098246.8437895 1.0119298 1.3995789 2.6821052 2.2357895 2.7545614 1.2858947 4.0280702 2.8458947 4.0108772 4.896-.0368421 3.7389473-3.2949123 6.1541052-8.3164912 6.1541052zm20.6929824-.2627368s-.4359649-2.071579-.5808771-2.7006316c-.6950878 0-5.5680702-.0075789-6.1157895-.0075789-.1854386.4863158-1.0033334 2.7082105-1.0033334 2.7082105h-5.0142105l7.0896491-16.5157895c.5035088-1.1734737 1.3570176-1.4955789 2.501579-1.4955789h3.6891228l3.8647368 18.0101052z" fill-rule="nonzero"/><path d="m57.1568421 20.7452632-.3217544-1.5536843c-.2431579.6783158-.6619298 1.7684211-.6349123 1.7204211 0 0-1.5092982 4.0004211-1.9022807 5.0374737h3.9654386c-.1915789-.9031579-1.1064912-5.2042105-1.1064912-5.2042105z"/></g></svg>