<svg height="27" viewBox="0 0 38 27" width="38" xmlns="http://www.w3.org/2000/svg"><path d="m36.5188581 2.41961877c-1.3716775-1.6383695-3.9041936-2.30667449-8.7407355-2.30667449h-17.5566129c-4.94723228 0-7.52265164.71141349-8.88918067 2.45570675-1.33232903 1.70069208-1.33232903 4.20652786-1.33232903 7.67466857v6.6102581c0 6.7188915 1.5808 10.1302522 10.2215097 10.1302522h17.5567355c4.1942193 0 6.5183483-.5897243 8.0219225-2.0355836 1.541942-1.4826862 2.1998323-3.9035366 2.1998323-8.0946686v-6.6102581c0-3.65744863-.1030903-6.17806447-1.4811419-7.82370083zm-12.1227355 12.04143693-7.9724 4.1865748c-.1782323.093607-.3731355.1400411-.5677936.1400411-.2204 0-.4403096-.0596129-.6350903-.1780998-.3667613-.223302-.5907161-.6227331-.5907161-1.0535718v-8.34629912c0-.43009971.2233419-.82916129.5893677-1.05258651.3661484-.22342522.8215355-.23869795 1.2014129-.04039883l7.9724 4.15960116c.4056194.2116012.660342.6323402.6609549 1.0913842.0004903.4594135-.2531291.8807683-.6581355 1.0933548z"/></svg>